<svg xmlns="http://www.w3.org/2000/svg" width="32" height="34" viewBox="0 0 32 34">
  <defs>
    <style>
      .cls-1 {
        fill: #597a35;
        fill-rule: evenodd;
      }
    </style>
  </defs>
  <path id="Profile:_ICON_Layer_1:_risible_" data-name="Profile: ICON (Layer 1: risible)" class="cls-1" d="M646.6,691.015a8.121,8.121,0,0,1,4.714,1.266l0.167,0.042c0.014,0.028.028,0.057,0.042,0.084H651.6l0.042,0.085h0.084c0.027,0.042.055,0.084,0.083,0.126H651.9l0.084,0.127h0.083c0.028,0.042.056,0.085,0.084,0.126h0.083l0.209,0.254h0.083c0.084,0.1.167,0.2,0.25,0.295h0.084L652.9,693.5h0.041v0.085l0.084,0.042v0.042l0.375,0.338V694.1c0.056,0.041.112,0.083,0.167,0.126v0.084l0.125,0.084v0.085l0.084,0.042V694.6c0.041,0.029.083,0.057,0.125,0.085v0.084l0.083,0.042V694.9l0.084,0.042,0.042,0.126h0.041v0.085h0.042v0.084c0.028,0.014.056,0.028,0.083,0.043l0.042,0.168c0.028,0.014.056,0.029,0.084,0.042,0.014,0.071.027,0.141,0.041,0.211h0.042v0.085h0.042v0.084h0.041v0.085h0.042l0.084,0.253h0.041l0.042,0.253h0.042v0.084h0.042c0.013,0.085.027,0.169,0.041,0.253h0.042v0.084h0.042v0.127h0.041l0.084,0.507a7.838,7.838,0,0,1-.084,4.345q-0.061.275-.125,0.549h-0.041v0.084h-0.042l-0.084.38h-0.041l-0.084.253h-0.042v0.084h-0.041v0.084h-0.042v0.085h-0.042v0.085H654.4v0.084h-0.042v0.084h-0.042v0.084h-0.042V703.8l-0.125.085c-0.014.055-.027,0.112-0.041,0.168h-0.042l-0.042.127-0.083.041v0.085l-0.084.043v0.084l-0.125.085V704.6l-0.125.085v0.085l-0.125.083v0.085l-0.376.338v0.084l-0.334.295c-0.027.043-.055,0.085-0.083,0.127h-0.083c-0.1.112-.2,0.225-0.292,0.337H652.23l-0.083.127h-0.084l-0.083.127H651.9c-0.027.042-.055,0.084-0.083,0.126H651.73l-0.042.084-0.125.043v0.042h-0.084l-0.041.084-0.167.042-0.042.085-0.167.042-0.042.085c-0.083.028-.167,0.055-0.25,0.084v0.042h-0.083v0.042l-0.251.085V707.3l-0.208.042v0.042h-0.084v0.042l-0.25.043v0.041h-0.083v0.043l-0.251.042c-0.351.139-.784,0.224-1.168,0.338H648.1v0.042h-0.292v0.042h-0.667v0.042h-0.334v-0.042H646.1v-0.042h-0.291v-0.042h-0.293v-0.043h-0.25v-0.042H645.1v-0.042h-0.167v-0.042l-0.459-.085v-0.042h-0.125V707.6H644.22v-0.042H644.1v-0.043h-0.083V707.47l-0.251-.043v-0.042l-0.25-.084v-0.042h-0.084v-0.043h-0.083v-0.042h-0.083v-0.042h-0.084V707.09h-0.083v-0.043H643.01v-0.041h-0.083v-0.043h-0.084v-0.042H642.76l-0.042-.084h-0.083v-0.043l-0.167-.042c-0.014-.027-0.028-0.056-0.042-0.084h-0.083l-0.042-.085h-0.084c-0.027-.042-0.055-0.084-0.083-0.126h-0.083l-0.042-.084h-0.084c-0.013-.028-0.027-0.057-0.041-0.085-0.042-.014-0.084-0.027-0.125-0.042l-0.126-.169H641.55l-0.292-.337h-0.083l-0.251-.3c-0.028-.013-0.055-0.028-0.083-0.042v-0.084l-0.376-.338V704.9c-0.055-.043-0.111-0.084-0.167-0.126v-0.085l-0.083-.042v-0.085l-0.125-.084V704.39l-0.125-.085V704.22l-0.084-.041v-0.085H639.84V704.01l-0.084-.042-0.042-.169-0.083-.043-0.042-.126h-0.042c-0.013-.055-0.027-0.112-0.041-0.168h-0.042l-0.042-.17h-0.041v-0.126h-0.042v-0.084H639.3l-0.083-.254h-0.042V702.7H639.13v-0.084h-0.041l-0.042-.254h-0.042v-0.126h-0.042v-0.126h-0.041v-0.127H638.88v-0.127h-0.042V701.69H638.8v-0.169h-0.042v-0.169h-0.042v-0.211h-0.042v-0.295H638.63v-0.254h-0.042v-0.548h-0.042a4,4,0,0,1,.042-1.055v-0.38a1.4,1.4,0,0,1,.083-0.38v-0.294c0.067-.232.137-0.5,0.209-0.718v-0.168h0.042c0.014-.085.028-0.17,0.041-0.254h0.042v-0.084h0.042l0.042-.253h0.041v-0.085h0.042l0.042-.253h0.042c0.027-.084.055-0.168,0.083-0.253h0.042v-0.084h0.041V695.7h0.042v-0.084h0.042V695.53h0.041v-0.085h0.042v-0.084l0.084-.042,0.041-.169h0.042l0.042-.127c0.028-.013.055-0.028,0.083-0.042l0.042-.169,0.083-.042v-0.084l0.084-.043,0.042-.126,0.166-.127v-0.084l0.084-.042v-0.085c0.1-.083.2-0.168,0.292-0.253v-0.084l0.375-.338c0.112-.126.223-0.253,0.334-0.379h0.084l0.208-.254h0.084c0.014-.027.027-0.056,0.041-0.084h0.084l0.083-.127h0.084c0.028-.041.055-0.084,0.083-0.126h0.083l0.084-.127,0.167-.041,0.042-.085,0.167-.043,0.041-.084c0.056-.013.112-0.028,0.167-0.042l0.042-.084h0.083v-0.042l0.167-.043V691.9H643.3v-0.043h0.084v-0.043h0.083v-0.042c0.084-.027.167-0.056,0.25-0.084v-0.042h0.126v-0.042h0.083v-0.042l0.25-.042v-0.043H644.3v-0.041h0.083V691.4l0.334-.042V691.31h0.167v-0.041h0.125v-0.043h0.167v-0.042h0.25v-0.042h0.292V691.1A5.121,5.121,0,0,0,646.6,691.015Zm-5.006,17.974,0.333,0.126c0.015,0.028.028,0.056,0.042,0.084h0.084v0.043h0.083v0.041h0.083v0.043H642.3v0.043h0.083v0.041h0.084v0.042h0.083V709.5h0.084v0.042h0.125v0.042l0.167,0.042v0.042h0.125v0.043h0.083v0.042l0.251,0.042v0.042h0.083v0.043l1.5,0.422h0.292v0.042h0.167v0.042h0.376a4.009,4.009,0,0,0,.959.084l0.292,0.043v-0.043h0.417a2.686,2.686,0,0,0,.71-0.084h0.375v-0.042c0.153-.015.306-0.028,0.459-0.042v-0.043h0.208v-0.042h0.126V710.17h0.208l1.293-.422v-0.042h0.084v-0.043h0.125v-0.042l0.167-.042v-0.042h0.125V709.5l0.25-.085v-0.041h0.084v-0.043h0.083v-0.043h0.084v-0.041h0.083a0.973,0.973,0,0,1,.417-0.211v-0.042c0.1,0.027.195,0.055,0.292,0.084v0.042l0.209,0.042V709.2l0.209,0.043v0.041l0.166,0.043v0.043l0.209,0.041v0.042l0.25,0.085v0.042h0.084v0.042h0.083v0.042h0.084v0.043h0.083v0.042h0.084v0.042h0.083v0.042h0.083l0.042,0.085c0.056,0.013.111,0.028,0.167,0.042l0.042,0.084,0.167,0.042c0.014,0.028.027,0.057,0.041,0.085,0.084,0.027.167,0.056,0.251,0.084,0.014,0.028.028,0.057,0.041,0.085,0.056,0.013.112,0.027,0.167,0.042l0.042,0.084h0.083v0.043l0.126,0.041c0.013,0.028.028,0.057,0.041,0.085h0.084l0.042,0.084h0.083l0.083,0.127h0.084v0.042l0.125,0.042,0.042,0.084h0.083c0.042,0.057.084,0.112,0.125,0.169h0.084c0.027,0.043.055,0.085,0.083,0.126h0.084c0.041,0.057.083,0.114,0.125,0.169l0.125,0.043,0.042,0.085h0.083l0.25,0.294H657.2l0.083,0.127c0.056,0.042.112,0.084,0.167,0.127V712.2h0.084l0.25,0.295h0.083c0.07,0.1.139,0.2,0.209,0.3l0.542,0.506v0.084l0.292,0.253v0.085l0.251,0.211v0.084l0.167,0.127v0.084c0.041,0.029.083,0.056,0.125,0.084v0.085l0.167,0.127c0.014,0.042.027,0.084,0.041,0.126l0.084,0.042v0.084l0.083,0.042V714.9c0.042,0.028.084,0.056,0.125,0.085v0.084l0.084,0.042c0.014,0.042.028,0.084,0.041,0.126h0.042v0.085l0.084,0.043v0.084l0.083,0.042v0.084l0.084,0.042V715.7l0.083,0.041,0.042,0.169c0.027,0.015.055,0.029,0.083,0.043l0.042,0.168,0.083,0.043,0.042,0.169c0.028,0.013.056,0.028,0.083,0.042,0.014,0.056.028,0.113,0.042,0.168l0.084,0.043,0.292,0.675h0.041v0.084h0.042v0.084h0.042v0.085h0.041l0.084,0.253h0.042v0.126h0.041v0.085h0.042v0.085h0.042c0.028,0.084.055,0.168,0.083,0.252h0.042v0.127h0.042c0.014,0.056.027,0.112,0.041,0.169h0.042v0.126h0.042v0.127h0.042v0.084h0.041l0.042,0.254h0.042v0.084h0.041v0.169H662.2v0.084h0.042v0.127h0.042v0.126h0.041v0.127h0.042v0.127h0.042v0.168h0.042v0.126h0.041v0.127h0.042l0.042,0.295h0.041l0.042,0.38H662.7v0.169h0.041v0.169h0.042l0.042,0.379h0.042v0.211h0.041v0.254h0.042v0.252h0.042v0.507a1.5,1.5,0,0,1-.584,1.392l-0.084.127h-0.083v0.042l-0.25.084v0.043l-0.251.042v0.042h-0.167v0.042h-0.208v0.042h-1a7.14,7.14,0,0,1-1.627.043l-3.338-.043H635.417l-1.335.043v-0.043h-1.418v-0.042h-0.25v-0.042h-0.167V724.81L632,724.768v-0.043l-0.167-.042v-0.042h-0.083V724.6c-0.042-.014-0.083-0.029-0.125-0.042l-0.042-.085H631.5l-0.084-.126H631.37v-0.085l-0.125-.084c-0.014-.056-0.027-0.113-0.041-0.169h-0.042l-0.042-.169h-0.042a3.645,3.645,0,0,1,.042-1.772c0.1-.477.2-0.956,0.292-1.434h0.042l0.042-.3h0.041v-0.084h0.042v-0.168h0.042v-0.127h0.042v-0.169H631.7v-0.084h0.042v-0.169h0.042v-0.084h0.041v-0.127h0.042l0.084-.38H632l0.042-.168h0.042l0.042-.253h0.041v-0.085h0.042v-0.127h0.042v-0.084h0.041l0.126-.38h0.041l0.042-.168h0.042V717.6h0.041v-0.128l0.084-.042,0.042-.168h0.041l0.042-.169h0.042V717h0.041V716.92h0.042v-0.084h0.042v-0.084H633c0.014-.057.027-0.113,0.041-0.169l0.084-.043,0.042-.168c0.027-.014.055-0.029,0.083-0.042l0.083-.254h0.042l0.042-.126,0.083-.043,0.042-.169h0.042c0.014-.041.027-0.084,0.041-0.126l0.084-.042v-0.084h0.042c0.013-.042.027-0.085,0.041-0.126l0.084-.043v-0.085l0.125-.084,0.042-.168c0.027-.015.055-0.029,0.083-0.043l0.042-.127c0.042-.027.083-0.055,0.125-0.084v-0.084c0.028-.014.055-0.029,0.083-0.042v-0.084l0.167-.127V714.3c0.042-.028.084-0.055,0.125-0.084v-0.084l0.167-.127v-0.084l0.292-.254v-0.084l0.251-.211v-0.084l0.459-.422,0.625-.675h0.084l0.25-.3h0.084l0.25-.294h0.083l0.042-.085,0.125-.043c0.042-.055.084-0.112,0.125-0.169h0.084c0.028-.041.055-0.083,0.083-0.126h0.084c0.041-.057.083-0.112,0.125-0.169h0.083l0.042-.084,0.125-.042v-0.042h0.084V710.8c0.041-.014.083-0.029,0.125-0.042,0.014-.029.028-0.057,0.041-0.085h0.084l0.083-.127h0.084l0.041-.084h0.084l0.042-.084h0.083v-0.042h0.083l0.042-.085c0.084-.028.167-0.057,0.251-0.084,0.013-.028.027-0.057,0.041-0.085l0.167-.042,0.042-.084c0.056-.014.111-0.029,0.167-0.042,0.014-.029.027-0.057,0.041-0.085l0.167-.042v-0.042h0.084v-0.042h0.083v-0.043h0.084v-0.042h0.083v-0.042H640.3v-0.042h0.084V709.5h0.083v-0.043h0.084V709.41h0.125v-0.041l0.167-.043v-0.043h0.125v-0.041l0.167-.043v-0.042h0.125v-0.042h0.083v-0.042c0.084-.014.167-0.029,0.251-0.042v-0.042Z" transform="translate(-631 -691)"/>
</svg>
