<svg width="23" height="21" viewBox="0 0 23 21" fill="none" xmlns="http://www.w3.org/2000/svg">
  <path d="M1 0.85H0.85V1V20V20.15H1H22.1714H22.3214V20V1V0.85H22.1714H1ZM7.31951 8.62497L2.2356 13.2646L2.23562 2.23562H20.9356V13.4376L17.7735 10.2754L17.7729 10.2749C17.5064 10.011 17.0321 10.0212 16.7771 10.2962C16.777 10.2963 16.777 10.2963 16.7769 10.2964L13.4651 13.8384L8.27323 8.64655L8.27324 8.64654L8.27244 8.64575C8.12581 8.50131 7.91459 8.42802 7.70975 8.4509C7.56588 8.46623 7.42807 8.52762 7.32049 8.62408L7.32048 8.62408L7.31951 8.62497ZM12.9976 15.3301L12.9982 15.3306C13.2647 15.5945 13.7389 15.5843 13.9939 15.3094C13.994 15.3093 13.9941 15.3092 13.9942 15.3091L17.306 11.7673L20.9354 15.3967V18.7642H2.23542V15.1463L7.76396 10.0964L12.9976 15.3301ZM13.2142 3.02123C11.6386 3.02123 10.3499 4.30997 10.3499 5.88552C10.3499 7.46108 11.6386 8.74981 13.2142 8.74981C14.7897 8.74981 16.0785 7.46108 16.0785 5.88552C16.0785 4.30997 14.7897 3.02123 13.2142 3.02123ZM13.2142 4.40685C14.0372 4.40685 14.6929 5.06239 14.6929 5.88552C14.6929 6.70849 14.0373 7.36419 13.2142 7.36419C12.3912 7.36419 11.7355 6.70866 11.7355 5.88552C11.7355 5.06256 12.3911 4.40685 13.2142 4.40685Z" fill="#39B54A" stroke="#39B54A" stroke-width="0.3"/>
</svg>
