<?xml version="1.0" encoding="UTF-8"?>
<!DOCTYPE svg PUBLIC "-//W3C//DTD SVG 1.1//EN" "http://www.w3.org/Graphics/SVG/1.1/DTD/svg11.dtd">
<!-- Creator: CorelDRAW 2020 (64-Bit) -->
<svg xmlns="http://www.w3.org/2000/svg" xml:space="preserve" width="2.5253mm" height="1.7515mm" version="1.1" style="shape-rendering:geometricPrecision; text-rendering:geometricPrecision; image-rendering:optimizeQuality; fill-rule:evenodd; clip-rule:evenodd"
viewBox="0 0 5.37 3.72"
 xmlns:xlink="http://www.w3.org/1999/xlink"
 xmlns:xodm="http://www.corel.com/coreldraw/odm/2003">
 <defs>
  <style type="text/css">
   <![CDATA[
    .fil0 {fill:#C5C6C6;fill-rule:nonzero}
   ]]>
  </style>
 </defs>
 <g id="Layer_x0020_1">
  <metadata id="CorelCorpID_0Corel-Layer"/>
  <g id="_2269736672">
   <path class="fil0" d="M4.04 1.86c0,0.75 -0.61,1.35 -1.35,1.35 -0.75,0 -1.35,-0.61 -1.35,-1.35 0,-0.75 0.61,-1.35 1.35,-1.35 0.75,0 1.35,0.61 1.35,1.35zm1.32 0.12l0 -0.09c-0.32,-1.1 -1.47,-1.9 -2.68,-1.9 -1.26,0 -2.29,0.82 -2.69,1.94 0.4,1.02 1.43,1.78 2.69,1.78 1.21,0 2.36,-0.74 2.68,-1.74z"/>
   <path class="fil0" d="M2.69 1.2c0,-0.12 0.03,-0.23 0.09,-0.33 -0.03,-0 -0.06,-0 -0.09,-0 -0.55,0 -0.99,0.45 -0.99,0.99 0,0.55 0.44,0.99 0.99,0.99 0.55,0 0.99,-0.45 0.99,-0.99 0,-0.03 -0,-0.06 -0,-0.09 -0.1,0.05 -0.21,0.09 -0.33,0.09 -0.36,0 -0.66,-0.3 -0.66,-0.66z"/>
  </g>
 </g>
</svg>
