<svg width="55" height="51" viewBox="0 0 55 51" fill="none" xmlns="http://www.w3.org/2000/svg">
  <path d="M48.0163 47.2019C48.0163 49.1006 46.4771 50.6393 44.579 50.6393C42.6803 50.6393 41.1416 49.1006 41.1416 47.2019C41.1416 45.3039 42.6803 43.7645 44.579 43.7645C46.477 43.7645 48.0163 45.3038 48.0163 47.2019Z" fill="#717D87"/>
  <path d="M14.8713 47.2019C14.8713 49.1006 13.332 50.6393 11.434 50.6393C9.5353 50.6393 7.99658 49.1006 7.99658 47.2019C7.99658 45.3039 9.53523 43.7645 11.434 43.7645C13.332 43.7645 14.8713 45.3038 14.8713 47.2019Z" fill="#717D87"/>
  <path d="M1.93066 10.8311L7.14801 43.2871H49.4369L54.6553 10.8311H1.93066Z" fill="#39B54A"/>
  <path d="M0.556152 8.73718H54.9998V9.7838H0.556152V8.73718Z" fill="#717D87"/>
  <path d="M50.1179 2.45519H39.0586L36.7044 0.360718H19.5176L17.1634 2.45519H6.10407L1.53174 6.64284H54.6899L50.1179 2.45519Z" fill="#39B54A"/>
</svg>
