<svg width="56" height="61" viewBox="0 0 56 61" fill="none" xmlns="http://www.w3.org/2000/svg">
  <path d="M52.3624 47.382H20.1147C18.6461 47.382 17.4327 46.1686 17.4327 44.7V8.30152C17.4327 3.70382 13.6653 0 9.06757 0H2.87345C1.27702 0 0 1.27702 0 2.80982C0 4.34261 1.27702 5.61964 2.87345 5.61964H9.13131C10.5999 5.61964 11.8133 6.83304 11.8133 8.30163V44.7001C11.8133 45.211 11.877 45.6578 11.9411 46.1049C8.1737 46.3602 5.17242 49.4894 5.17242 53.3846C5.17242 57.4077 8.42901 60.6643 12.4521 60.6643C16.4752 60.6643 19.7318 57.4077 19.7318 53.3846C19.7318 53.2568 19.7318 53.1294 19.6681 53.0016C19.7959 53.0016 19.9233 53.0653 20.0512 53.0653H52.2989C53.8953 53.0653 55.1724 51.7882 55.1724 50.2554C55.1719 48.7231 53.9585 47.382 52.3621 47.382L52.3624 47.382Z" fill="#717D87"/>
  <path d="M24.8401 42.848H47.8924C49.4251 42.848 50.7022 41.571 50.7022 40.0382V16.9859C50.7022 15.3895 49.4252 14.1124 47.8924 14.1124H42.2092V23.3716C42.2092 24.8402 40.9958 26.0536 39.5272 26.0536C39.0163 26.0536 38.5054 25.9257 38.1223 25.6705L36.3981 24.585L34.6738 25.6705C34.2266 25.9257 33.7162 26.0536 33.269 26.0536C31.7363 26.0536 30.5234 24.8402 30.5234 23.3716V14.1761H24.8401C23.3074 14.1761 22.0303 15.4531 22.0303 17.0495V40.1018C22.0303 41.5704 23.2437 42.8479 24.8401 42.8479V42.848Z" fill="#8f7f36"/>
  <path d="M33.5887 24.0742L36.3343 22.3499L39.0799 24.0742C39.5908 24.3935 40.2933 24.0105 40.2933 23.4354L40.2937 14.1763H32.4395V23.4354C32.4395 24.01 33.0782 24.3935 33.5886 24.0742H33.5887Z" fill="#717D87"/>
</svg>
