<svg width="102" height="51" viewBox="0 0 102 51" fill="none" xmlns="http://www.w3.org/2000/svg">
  <path d="M75.0093 0H0.112068V31.9381H75.0093V0Z" fill="#717D87"/>
  <path d="M76.9212 8.09677V1.23682L88.2793 9.44607H78.2705C77.5959 9.44607 76.9213 8.99658 76.9213 8.09681L76.9212 8.09677Z" fill="#717D87"/>
  <path d="M33.2877 37.4482C36.9989 37.4482 40.0356 40.4848 40.0356 44.1961C40.0356 47.9075 36.9991 50.944 33.2877 50.944C29.5766 50.944 26.5398 47.9075 26.5398 44.1961C26.4277 40.485 29.5764 37.4482 33.2877 37.4482ZM33.2877 47.1197C34.8621 47.1197 36.2115 45.7704 36.2115 44.1959C36.2115 42.6216 34.8622 41.2722 33.2877 41.2722C31.7133 41.2722 30.364 42.6215 30.364 44.1959C30.364 45.8825 31.7133 47.1197 33.2877 47.1197Z" fill="#717D87"/>
  <path d="M11.8079 44.0835V43.7462C12.033 40.2602 14.9567 37.4487 18.5558 37.4487C22.2669 37.4487 25.3037 40.4853 25.3037 44.1966C25.3037 47.9079 22.2671 50.9445 18.5558 50.9445C14.8447 50.9445 11.8079 47.9079 11.8079 44.1966V44.0837V44.0835ZM18.6671 47.1201C20.2414 47.1201 21.5908 45.7708 21.5908 44.1964C21.5908 42.622 20.2415 41.2726 18.6671 41.2726C17.0926 41.2726 15.7434 42.6219 15.7434 44.1964C15.7434 45.8829 16.9804 47.1201 18.6671 47.1201Z" fill="#717D87"/>
  <path d="M100.762 38.6855C100.537 41.9464 100.088 43.5208 98.8505 43.746H93.1153C93.1153 41.8343 92.3278 40.1469 91.3158 38.6855H100.762Z" fill="#717D87"/>
  <path d="M84.9059 37.4482C88.617 37.4482 91.6538 40.4848 91.6538 44.1961C91.6538 47.9075 88.6172 50.944 84.9059 50.944C81.1946 50.944 78.158 47.9075 78.158 44.1961C78.158 40.4848 81.1946 37.4482 84.9059 37.4482ZM84.9059 47.457C86.7054 47.457 88.1668 45.9948 88.1668 44.1961C88.1668 42.3966 86.7046 40.9352 84.9059 40.9352C83.1064 40.9352 81.645 42.3974 81.645 44.1961C81.7564 45.9949 83.2186 47.457 84.9059 47.457Z" fill="#717D87"/>
  <path d="M76.8087 27.5521V14.6198V12.596C76.8087 11.8084 77.4834 11.3589 78.2709 11.3589H90.5287C94.0147 11.3589 95.0266 13.4958 95.0266 13.4958L99.5245 21.5928C99.5245 21.5928 99.4124 21.3677 100.649 23.6166C101.887 25.9787 100.987 36.5489 100.987 36.5489H92.1029H89.6289C88.3918 35.7613 86.8174 35.3119 85.243 35.3119C82.5438 35.3119 80.0695 36.5489 78.4951 38.4607C77.3702 39.9229 76.6956 41.6095 76.6956 43.6342H41.8335C41.7213 38.5738 38.4596 35.1998 31.937 35.1998H19.4541C12.8193 35.1998 9.89476 38.5738 9.78271 43.5219H8.77077C8.32127 43.5219 7.75883 43.4097 7.30857 43.1846C6.52098 42.7351 6.07149 41.9475 6.07149 41.0477L6.07227 35.424H-6.86646e-05V33.4001H79.3955L76.8087 27.5521ZM83.6687 21.2547C83.6687 22.0422 84.3433 22.6039 85.0179 22.6039H95.2518C96.6011 22.6039 96.9384 21.9293 96.2638 20.6922L93.3401 15.1816C92.7776 14.0567 92.2152 13.8323 91.5406 13.8323H85.018C84.2304 13.8323 83.6687 14.5069 83.6687 15.1816L83.6687 21.2547Z" fill="#717D87"/>
</svg>