<svg width="99" height="99" viewBox="0 0 99 99" fill="none" xmlns="http://www.w3.org/2000/svg">
  <circle cx="49.5" cy="49.5" r="48.5" fill="white" stroke="#4B4C4E" stroke-width="2"/>
  <path fill-rule="evenodd" clip-rule="evenodd" d="M49.2341 29.4431C42.9979 29.4431 37.9423 34.4987 37.9423 40.7349C37.9423 46.9715 42.9979 52.0267 49.2341 52.0267C55.4703 52.0267 60.5259 46.9715 60.5259 40.7349C60.5259 34.4987 55.4703 29.4431 49.2341 29.4431ZM62.0314 40.7349C62.0314 33.6672 56.3018 27.9376 49.2341 27.9376C42.1664 27.9376 36.4368 33.6672 36.4368 40.7349C36.4368 47.8031 42.1664 53.5322 49.2341 53.5322C56.3018 53.5322 62.0314 47.8031 62.0314 40.7349Z" fill="#4B4C4E"/>
  <path fill-rule="evenodd" clip-rule="evenodd" d="M48.906 25.5094C40.6673 25.5094 33.9907 32.2732 33.9907 40.6037C33.9907 42.0533 34.4676 43.8854 35.3029 45.9577C36.1329 48.017 37.2921 50.2543 38.6011 52.4961C41.2187 56.9792 44.4019 61.4242 46.6503 64.4104C47.493 65.526 48.2016 66.4366 48.6993 67.0678C48.7728 67.1611 48.8418 67.2483 48.9058 67.3291C48.9699 67.2483 49.0388 67.1611 49.1124 67.0678C49.6101 66.4366 50.3188 65.5258 51.1616 64.4101C53.4099 61.424 56.593 56.9791 59.2105 52.4961C60.5195 50.2543 61.6787 48.017 62.5088 45.9577C63.344 43.8854 63.821 42.0532 63.821 40.6037C63.821 40.5967 63.8211 40.5897 63.8213 40.5827C63.81 32.2619 57.1377 25.5094 48.906 25.5094ZM65.3125 40.6264C65.3127 40.6189 65.3128 40.6113 65.3128 40.6037C65.3128 31.4402 57.9689 24 48.906 24C39.8431 24 32.4991 31.44 32.4991 40.6037C32.4991 42.3429 33.0597 44.389 33.9218 46.5278C34.789 48.6795 35.9869 50.986 37.317 53.264C39.9775 57.8205 43.2004 62.3188 45.464 65.3253L45.4647 65.3262C46.3147 66.4516 47.0301 67.3708 47.5334 68.0092C47.7851 68.3284 47.9838 68.5775 48.1198 68.7471C48.1878 68.8319 48.2402 68.8968 48.2757 68.9407C48.2848 68.952 48.2929 68.962 48.2997 68.9704L48.3293 69.0069L48.3301 69.0078L48.3303 69.0081C48.3303 69.0081 48.3304 69.0082 48.9058 68.5281L48.3304 69.0082C48.472 69.1821 48.6831 69.2829 48.9058 69.2829C49.1286 69.2829 49.3396 69.1821 49.4813 69.0082L48.9058 68.5281C49.4813 69.0082 49.4813 69.0082 49.4813 69.0082L49.4814 69.0081L49.4816 69.0078L49.4823 69.0069L49.4955 68.9907C49.5047 68.9794 49.5182 68.9627 49.536 68.9407C49.5715 68.8968 49.6238 68.8319 49.6919 68.7471C49.8279 68.5775 50.0266 68.3284 50.2783 68.0092C50.7816 67.3708 51.497 66.4516 52.347 65.3262L52.3477 65.3253C54.6112 62.319 57.8341 57.8205 60.4946 53.264C61.8247 50.986 63.0226 48.6795 63.8899 46.5277C64.7482 44.3982 65.3076 42.3606 65.3125 40.6264Z" fill="#4B4C4E"/>
  <path fill-rule="evenodd" clip-rule="evenodd" d="M46.2754 64.0351C46.5322 64.014 46.7818 64.1294 46.9383 64.3415C47.7959 65.5042 48.5173 66.4533 49.0238 67.1111C49.0986 67.2083 49.1687 67.2991 49.2339 67.3833C49.2991 67.2991 49.3692 67.2083 49.4441 67.1111C49.9506 66.4533 50.6719 65.5042 51.5296 64.3415C51.686 64.1294 51.9356 64.014 52.1924 64.0351C54.676 64.2393 56.8744 64.6957 58.4757 65.3322C59.273 65.649 59.9638 66.0267 60.469 66.4731C60.9631 66.9098 61.3639 67.4919 61.3746 68.2099C61.375 68.2197 61.3751 68.2295 61.3751 68.2394C61.3751 69.1099 60.8115 69.7811 60.1604 70.2597C59.4898 70.7526 58.5688 71.1639 57.4992 71.4961C55.3505 72.1635 52.428 72.5642 49.2341 72.5642C46.0401 72.5642 43.1177 72.1635 40.9689 71.4961C39.8994 71.1639 38.9784 70.7526 38.3078 70.2597C37.6567 69.7811 37.093 69.1099 37.093 68.2394C37.093 67.5079 37.498 66.9158 37.9989 66.4731C38.504 66.0267 39.1949 65.649 39.9922 65.3322C41.5935 64.6957 43.7919 64.2393 46.2754 64.0351ZM59.8573 68.2502C59.8572 68.2466 59.8572 68.243 59.8572 68.2394C59.8572 68.1533 59.8117 67.9591 59.4842 67.6697C59.1611 67.3842 58.6459 67.0842 57.9322 66.8005C56.5932 66.2683 54.701 65.8503 52.482 65.6391C51.7281 66.6563 51.0917 67.4928 50.6304 68.0919C50.3743 68.4245 50.1721 68.684 50.0337 68.8607C49.9645 68.9491 49.9112 69.0167 49.8751 69.0624C49.857 69.0853 49.8433 69.1027 49.8339 69.1145L49.8196 69.1326C49.8195 69.1326 49.8195 69.1327 49.2339 68.6326C48.6484 69.1327 48.6484 69.1327 48.6484 69.1327L48.6481 69.1323L48.6339 69.1145C48.6246 69.1027 48.6108 69.0853 48.5928 69.0624C48.5566 69.0167 48.5034 68.9491 48.4341 68.8607C48.2957 68.684 48.0936 68.4245 47.8375 68.0919C47.3762 67.4928 46.7398 66.6563 45.9859 65.6392C43.7669 65.8503 41.8747 66.2683 40.5357 66.8005C39.822 67.0842 39.3068 67.3842 38.9836 67.6698C38.6562 67.9591 38.6106 68.1533 38.6106 68.2394C38.6106 68.3479 38.6844 68.6085 39.1857 68.9769C39.6676 69.3311 40.414 69.682 41.4047 69.9897C43.3763 70.602 46.145 70.9916 49.2341 70.9916C52.3232 70.9916 55.0919 70.602 57.0635 69.9897C58.0541 69.682 58.8006 69.3311 59.2824 68.9769C59.7678 68.6202 59.8524 68.3646 59.8573 68.2502ZM49.2339 68.6326L48.6484 69.1327C48.7925 69.3139 49.0073 69.4189 49.2339 69.4189C49.4605 69.4189 49.6753 69.3139 49.8195 69.1327L49.2339 68.6326Z" fill="#4B4C4E"/>
</svg>
