<svg width="99" height="99" viewBox="0 0 99 99" fill="none" xmlns="http://www.w3.org/2000/svg">
  <circle cx="49.5" cy="49.5" r="48.5" fill="white" stroke="#34A644" stroke-width="2"/>
  <path d="M57.8923 45.8955C54.0905 45.5198 50.462 45.1786 47.4588 45.4506L47.4827 60.7662C50.8768 60.9568 53.811 61.5678 55.9103 62.4495C56.9742 62.8964 57.8312 63.4159 58.4244 63.9918C59.0183 64.5683 59.3569 65.2109 59.3569 65.8979C59.3569 66.6641 58.941 67.3709 58.2246 67.9931C57.5084 68.6152 56.4784 69.1653 55.2127 69.6227C52.6802 70.5379 49.1715 71.0935 45.2448 71.0935C41.3168 71.0935 37.8069 70.5379 35.2734 69.6228C34.0073 69.1654 32.977 68.6153 32.2604 67.9933C31.5438 67.3712 31.1275 66.6644 31.1273 65.8982C31.1273 65.2117 31.4654 64.5694 32.0585 63.9932C32.6509 63.4175 33.5067 62.8983 34.5692 62.4516C36.6656 61.5702 39.5958 60.959 42.9858 60.7674L42.9613 45.8764C42.9604 45.8708 42.9581 45.8566 42.9581 45.8397V26.1126C42.9581 24.8644 43.9752 23.85 45.2243 23.85C45.8286 23.85 46.3972 24.0855 46.8241 24.5125L46.8242 24.5125C47.2511 24.9398 47.4866 25.5083 47.4866 26.1127V26.4124C50.1453 26.39 52.8724 26.7431 55.6899 27.11C60.728 27.7661 65.898 28.4362 70.8372 26.8221L70.8806 26.9549L70.8372 26.8221C71.0604 26.7492 71.3058 26.8379 71.4302 27.0386C71.4302 27.0386 71.4302 27.0387 71.4303 27.0387L71.3028 27.1177C71.3906 27.2591 71.3701 27.4421 71.253 27.561L57.8923 45.8955ZM57.8923 45.8955L57.8921 45.8957L58.2287 45.929L58.2403 45.9302C61.3006 46.2333 64.4417 46.5444 67.3884 46.5444C68.6524 46.5444 69.8829 46.4871 71.0563 46.3473C71.2491 46.3243 71.4121 46.1941 71.4775 46.0116L71.4776 46.0111C71.5424 45.8283 71.4986 45.6246 71.3638 45.4849L71.2558 45.589L71.3638 45.4849L62.6817 36.4821L71.3599 27.6663L57.8923 45.8955ZM43.98 26.1123V26.1123C43.98 25.4288 44.5377 24.8718 45.2237 24.8718C45.5556 24.8718 45.8666 25.0006 46.1008 25.2349C46.335 25.4695 46.4638 25.7804 46.4638 26.112V26.44C45.6299 26.4798 44.8023 26.5625 43.9798 26.6982L43.98 26.1123ZM47.4896 65.7508L47.4834 61.7894C50.5395 61.9666 53.2509 62.509 55.2037 63.2555C56.1976 63.6354 56.9872 64.0653 57.5256 64.5209C58.0656 64.9778 58.334 65.4436 58.334 65.897C58.334 66.3527 58.0425 66.8455 57.4347 67.3368C56.8301 67.8256 55.9348 68.2938 54.7839 68.7005C52.4837 69.5134 49.1913 70.0708 45.2441 70.0708C41.2955 70.0708 38.002 69.5134 35.701 68.7005C34.5498 68.2938 33.6541 67.8256 33.0494 67.337C32.4414 66.8457 32.1498 66.3529 32.1498 65.8974C32.1498 65.4443 32.4178 64.9788 32.9571 64.5222C33.4947 64.067 34.2833 63.6373 35.276 63.2575C37.2264 62.5113 39.9349 61.9687 42.9883 61.7905L42.9951 65.8991C42.9956 66.1809 43.224 66.4096 43.5062 66.4096H46.9797C47.1155 66.4096 47.2453 66.3556 47.3411 66.2599C47.4372 66.1637 47.4912 66.0335 47.4912 65.8978V65.7508L47.4896 65.7508ZM55.567 28.1247C60.063 28.7099 64.7242 29.3167 69.3019 28.2995L61.6038 36.1198L61.6037 36.1199C61.4098 36.3173 61.4076 36.6337 61.6003 36.8334C61.6003 36.8334 61.6003 36.8334 61.6003 36.8334L69.8938 45.4333C66.3375 45.7042 62.2809 45.3033 58.3288 44.9118L58.3136 44.9103C55.3421 44.6162 52.4459 44.3296 49.8347 44.3296C47.6539 44.3292 45.6611 44.529 43.9821 45.097L43.98 43.8887V43.8884V27.7322C47.6403 27.0942 51.4754 27.5923 55.5573 28.1234L55.567 28.1247ZM44.0156 65.3875L43.9837 46.1892C44.7237 45.9061 45.5435 45.7029 46.4361 45.5699L46.467 65.3875H44.0156Z" fill="#39B54A" stroke="#39B54A" stroke-width="0.3"/>
</svg>
