<svg width="358" height="16" viewBox="0 0 358 16" fill="none" xmlns="http://www.w3.org/2000/svg">
  <path d="M357.707 8.70714C358.098 8.31661 358.098 7.68345 357.707 7.29292L351.343 0.928963C350.953 0.538438 350.319 0.538438 349.929 0.928963C349.538 1.31949 349.538 1.95265 349.929 2.34318L355.586 8.00003L349.929 13.6569C349.538 14.0474 349.538 14.6806 349.929 15.0711C350.319 15.4616 350.953 15.4616 351.343 15.0711L357.707 8.70714ZM-8.74228e-08 9L4.4625 9L4.4625 7L8.74228e-08 7L-8.74228e-08 9ZM13.3875 9L22.3125 9L22.3125 7L13.3875 7L13.3875 9ZM31.2375 9L40.1625 9L40.1625 7L31.2375 7L31.2375 9ZM49.0875 9L58.0125 9.00001L58.0125 7.00001L49.0875 7L49.0875 9ZM66.9375 9.00001L75.8625 9.00001L75.8625 7.00001L66.9375 7.00001L66.9375 9.00001ZM84.7875 9.00001L93.7125 9.00001L93.7125 7.00001L84.7875 7.00001L84.7875 9.00001ZM102.638 9.00001L111.563 9.00001L111.563 7.00001L102.638 7.00001L102.638 9.00001ZM120.488 9.00001L129.413 9.00001L129.413 7.00001L120.488 7.00001L120.488 9.00001ZM138.338 9.00001L147.263 9.00001L147.263 7.00001L138.338 7.00001L138.338 9.00001ZM156.188 9.00001L165.113 9.00001L165.113 7.00001L156.188 7.00001L156.188 9.00001ZM174.038 9.00002L182.963 9.00002L182.963 7.00002L174.038 7.00002L174.038 9.00002ZM191.888 9.00002L200.813 9.00002L200.813 7.00002L191.888 7.00002L191.888 9.00002ZM209.738 9.00002L218.663 9.00002L218.663 7.00002L209.738 7.00002L209.738 9.00002ZM227.588 9.00002L236.513 9.00002L236.513 7.00002L227.588 7.00002L227.588 9.00002ZM245.438 9.00002L254.363 9.00002L254.363 7.00002L245.438 7.00002L245.438 9.00002ZM263.288 9.00002L272.213 9.00002L272.213 7.00002L263.288 7.00002L263.288 9.00002ZM281.138 9.00002L290.063 9.00003L290.063 7.00003L281.138 7.00002L281.138 9.00002ZM298.988 9.00003L307.913 9.00003L307.913 7.00003L298.988 7.00003L298.988 9.00003ZM316.837 9.00003L325.762 9.00003L325.762 7.00003L316.837 7.00003L316.837 9.00003ZM334.687 9.00003L343.612 9.00003L343.612 7.00003L334.688 7.00003L334.687 9.00003ZM352.537 9.00003L357 9.00003L357 7.00003L352.537 7.00003L352.537 9.00003Z" fill="#39B54A"/>
</svg>
