<svg width="58" height="58" viewBox="0 0 58 58" fill="none" xmlns="http://www.w3.org/2000/svg">
  <circle cx="29" cy="29" r="28" fill="white" stroke="#34A644" stroke-width="2"/>
  <path d="M27.9043 26.7575C29.5543 26.6164 31.534 26.7958 33.6185 27.0012L33.6184 27.0013L33.9549 27.0346L33.9634 27.0354C35.7016 27.2076 37.4897 27.3847 39.1679 27.3847C39.8882 27.3847 40.5903 27.3521 41.2605 27.2722C41.3944 27.2562 41.5077 27.1657 41.5531 27.0389L41.5533 27.0384C41.5983 26.9114 41.5679 26.7699 41.4742 26.6728L41.3662 26.7769L41.4742 26.6728L36.5829 21.6008L41.4715 16.6347C41.5866 16.5178 41.6068 16.3376 41.5203 16.1983C41.4338 16.0588 41.2633 15.9972 41.1082 16.0478L41.1082 16.0479C38.3169 16.96 35.393 16.5821 32.5266 16.2089C30.9489 16.0034 29.4159 15.8048 27.92 15.8114V15.7061C27.92 15.3455 27.7794 15.0058 27.5246 14.7508L27.5245 14.7508C27.2697 14.4959 26.93 14.3552 26.5693 14.3552C25.8237 14.3552 25.2165 14.9607 25.2165 15.7061V26.9194C25.2165 26.93 25.2175 26.9393 25.2183 26.9452L25.2321 35.3435C23.3262 35.4565 21.6754 35.8029 20.4877 36.3023C19.8794 36.558 19.3851 36.857 19.0405 37.1918C18.6953 37.5272 18.4916 37.9079 18.4916 38.3211V38.3211C18.4917 38.782 18.7424 39.2001 19.1579 39.5608C19.5735 39.9215 20.1672 40.2376 20.8911 40.4991C22.34 41.0225 24.343 41.3389 26.581 41.3389C28.8182 41.3389 30.8205 41.0225 32.269 40.499C32.9926 40.2375 33.5861 39.9215 34.0015 39.5607C34.4168 39.1999 34.6674 38.7818 34.6674 38.3209C34.6674 37.9075 34.4633 37.5265 34.1177 37.191C33.7726 36.856 33.2776 36.5569 32.6686 36.3011C31.4791 35.8015 29.826 35.4552 27.9177 35.3428L27.9043 26.7575ZM25.2195 26.9532C25.2196 26.9536 25.2196 26.9534 25.2195 26.9531L25.2195 26.9532ZM25.9268 15.706V15.7059C25.9268 15.3533 26.2147 15.0656 26.569 15.0656C26.7405 15.0656 26.9008 15.132 27.0218 15.2529C27.1428 15.3742 27.2092 15.5345 27.2092 15.7057V15.8306C26.7792 15.8531 26.3518 15.8958 25.9267 15.9629L25.9268 15.706ZM27.9183 36.0543C29.6227 36.1588 31.1311 36.4636 32.2187 36.8794C32.78 37.0939 33.2215 37.3351 33.5198 37.5876C33.8199 37.8414 33.9564 38.0898 33.9564 38.3204C33.9564 38.5508 33.8084 38.8143 33.4693 39.0885C33.1334 39.36 32.6319 39.6231 31.9817 39.8529C30.6827 40.312 28.8189 40.6281 26.5806 40.6281C24.3415 40.6281 22.4771 40.312 21.1777 39.8529C20.5272 39.6231 20.0256 39.3601 19.6896 39.0885C19.3503 38.8144 19.2022 38.5509 19.2022 38.3206C19.2022 38.0902 19.3386 37.842 19.6382 37.5883C19.9362 37.3361 20.377 37.095 20.9376 36.8805C22.024 36.4649 23.5308 36.16 25.2337 36.0549L25.2375 38.3217C25.2378 38.5175 25.3966 38.6765 25.5927 38.6765H27.5672C27.6615 38.6765 27.7518 38.639 27.8183 38.5724C27.8851 38.5056 27.9226 38.4152 27.9226 38.3208V38.1739L27.9216 38.1739L27.9183 36.0543ZM32.4457 16.9147C34.9288 17.238 37.5132 17.5744 40.0583 17.0573L35.8337 21.349L35.8336 21.3491C35.6988 21.4863 35.6973 21.7061 35.8312 21.845C35.8312 21.845 35.8312 21.845 35.8312 21.845L40.4494 26.6337C38.4681 26.767 36.2216 26.5452 34.0246 26.3275L34.0139 26.3265C32.3263 26.1595 30.6775 25.9963 29.19 25.9963C27.9839 25.9961 26.8736 26.1032 25.9278 26.4078L25.9268 25.8104V25.8101V16.6813C27.9797 16.3347 30.1321 16.6137 32.4345 16.9133L32.4457 16.9147ZM25.9469 37.966L25.929 27.1628C26.3129 27.0197 26.7353 26.9139 27.1935 26.8415L27.2109 37.966H25.9469Z" fill="#39B54A" stroke="#39B54A" stroke-width="0.3"/>
</svg>
