<svg width="58" height="58" viewBox="0 0 58 58" fill="none" xmlns="http://www.w3.org/2000/svg">
  <circle cx="29" cy="29" r="28" fill="white" stroke="#4B4C4E" stroke-width="2"/>
  <path fill-rule="evenodd" clip-rule="evenodd" d="M29.4169 17.5993C25.872 17.5993 22.9984 20.473 22.9984 24.0178C22.9984 27.5629 25.872 30.4363 29.4169 30.4363C32.9617 30.4363 35.8353 27.5629 35.8353 24.0178C35.8353 20.473 32.9617 17.5993 29.4169 17.5993ZM36.6911 24.0178C36.6911 20.0004 33.4343 16.7435 29.4169 16.7435C25.3994 16.7435 22.1426 20.0004 22.1426 24.0178C22.1426 28.0355 25.3994 31.2921 29.4169 31.2921C33.4343 31.2921 36.6911 28.0355 36.6911 24.0178Z" fill="#4B4C4E"/>
  <path fill-rule="evenodd" clip-rule="evenodd" d="M29.2303 15.3632C24.5472 15.3632 20.7521 19.2079 20.7521 23.9432C20.7521 24.7671 21.0232 25.8086 21.498 26.9865C21.9698 28.157 22.6287 29.4288 23.3728 30.703C24.8607 33.2513 26.6701 35.7779 27.9481 37.4754C28.4271 38.1095 28.8299 38.6271 29.1128 38.9859C29.1546 39.0389 29.1938 39.0885 29.2302 39.1344C29.2666 39.0885 29.3058 39.0389 29.3476 38.9859C29.6305 38.6271 30.0334 38.1094 30.5124 37.4752C31.7904 35.7778 33.5997 33.2513 35.0876 30.7031C35.8317 29.4288 36.4906 28.157 36.9624 26.9864C37.4372 25.8085 37.7083 24.7671 37.7083 23.9432C37.7083 23.9392 37.7083 23.9352 37.7085 23.9312C37.7021 19.2015 33.9094 15.3632 29.2303 15.3632ZM38.5561 23.9561C38.5562 23.9518 38.5563 23.9475 38.5563 23.9432C38.5563 18.7344 34.3818 14.5052 29.2303 14.5052C24.0787 14.5052 19.9043 18.7343 19.9043 23.9432C19.9043 24.9317 20.2229 26.0948 20.713 27.3105C21.2059 28.5336 21.8868 29.8447 22.6429 31.1395C24.1551 33.7295 25.9871 36.2865 27.2738 37.9954L27.2742 37.9959C27.7574 38.6356 28.164 39.1581 28.4501 39.521C28.5931 39.7025 28.7061 39.844 28.7834 39.9404C28.8221 39.9886 28.8518 40.0256 28.872 40.0505C28.8772 40.0569 28.8818 40.0626 28.8857 40.0674L28.9025 40.0881L28.9029 40.0886L28.903 40.0888C28.9031 40.0888 28.9031 40.0889 29.2302 39.816L28.9031 40.0889C28.9836 40.1877 29.1036 40.245 29.2302 40.245C29.3568 40.245 29.4768 40.1877 29.5573 40.0889L29.2302 39.816C29.5573 40.0889 29.5573 40.0889 29.5573 40.0889L29.5574 40.0888L29.5575 40.0886L29.5579 40.0881L29.5654 40.0789C29.5706 40.0725 29.5783 40.063 29.5884 40.0505C29.6086 40.0256 29.6383 39.9886 29.677 39.9404C29.7543 39.844 29.8673 39.7025 30.0103 39.521C30.2964 39.1581 30.7031 38.6356 31.1862 37.9959L31.1866 37.9954C32.4733 36.2865 34.3052 33.7296 35.8175 31.1395C36.5736 29.8447 37.2545 28.5336 37.7474 27.3105C38.2353 26.1 38.5533 24.9418 38.5561 23.9561Z" fill="#4B4C4E"/>
  <path fill-rule="evenodd" clip-rule="evenodd" d="M27.7351 37.2621C27.8811 37.2501 28.0229 37.3157 28.1119 37.4363C28.5994 38.0972 29.0094 38.6367 29.2973 39.0106C29.3399 39.0658 29.3797 39.1175 29.4168 39.1653C29.4538 39.1175 29.4937 39.0658 29.5362 39.0106C29.8241 38.6367 30.2342 38.0972 30.7217 37.4363C30.8106 37.3157 30.9525 37.2501 31.0985 37.2621C32.5102 37.3782 33.7598 37.6376 34.67 37.9994C35.1232 38.1795 35.5159 38.3942 35.803 38.648C36.0839 38.8962 36.3117 39.2271 36.3178 39.6352C36.318 39.6407 36.3181 39.6463 36.3181 39.652C36.3181 40.1467 35.9977 40.5283 35.6276 40.8003C35.2464 41.0805 34.7229 41.3143 34.1149 41.5031C32.8935 41.8825 31.2324 42.1103 29.4169 42.1103C27.6013 42.1103 25.9402 41.8825 24.7188 41.5031C24.1108 41.3143 23.5873 41.0805 23.2061 40.8003C22.836 40.5283 22.5156 40.1467 22.5156 39.652C22.5156 39.2361 22.7458 38.8996 23.0305 38.648C23.3177 38.3942 23.7104 38.1795 24.1636 37.9994C25.0738 37.6376 26.3234 37.3782 27.7351 37.2621ZM35.4553 39.6581C35.4553 39.656 35.4553 39.654 35.4553 39.652C35.4553 39.603 35.4294 39.4926 35.2433 39.3281C35.0596 39.1658 34.7668 38.9953 34.3611 38.834C33.6 38.5315 32.5244 38.2939 31.263 38.1739C30.8345 38.7521 30.4728 39.2276 30.2105 39.5681C30.065 39.7572 29.9501 39.9047 29.8714 40.0051C29.832 40.0553 29.8018 40.0938 29.7812 40.1198C29.771 40.1328 29.7631 40.1427 29.7578 40.1494L29.7497 40.1597C29.7496 40.1597 29.7496 40.1597 29.4168 39.8754C29.0839 40.1597 29.0839 40.1597 29.0839 40.1597L29.0838 40.1595L29.0757 40.1494C29.0704 40.1427 29.0626 40.1328 29.0523 40.1198C29.0318 40.0938 29.0015 40.0553 28.9622 40.0051C28.8835 39.9047 28.7686 39.7572 28.623 39.5681C28.3608 39.2276 27.9991 38.7521 27.5705 38.1739C26.3092 38.294 25.2336 38.5315 24.4725 38.8341C24.0668 38.9953 23.774 39.1658 23.5903 39.3281C23.4042 39.4926 23.3783 39.603 23.3783 39.652C23.3783 39.7136 23.4202 39.8617 23.7052 40.0712C23.9791 40.2725 24.4034 40.4719 24.9665 40.6468C26.0872 40.9949 27.6609 41.2163 29.4169 41.2163C31.1728 41.2163 32.7466 40.9949 33.8673 40.6468C34.4304 40.4719 34.8547 40.2725 35.1285 40.0712C35.4045 39.8684 35.4525 39.7231 35.4553 39.6581ZM29.4168 39.8754L29.0839 40.1597C29.1659 40.2627 29.288 40.3224 29.4168 40.3224C29.5456 40.3224 29.6677 40.2627 29.7496 40.1597L29.4168 39.8754Z" fill="#4B4C4E"/>
</svg>
