<!DOCTYPE svg PUBLIC "-//W3C//DTD SVG 1.1//EN" "http://www.w3.org/Graphics/SVG/1.1/DTD/svg11.dtd">
<!-- Uploaded to: SVG Repo, www.svgrepo.com, Transformed by: SVG Repo Mixer Tools -->
<svg version="1.1" id="Uploaded to svgrepo.com" xmlns="http://www.w3.org/2000/svg" xmlns:xlink="http://www.w3.org/1999/xlink" width="80px" height="80px" viewBox="0 0 32 32" xml:space="preserve" fill="#e31e24" stroke="#e31e24" stroke-width="0.00032">
<g id="SVGRepo_bgCarrier" stroke-width="0"/>
<g id="SVGRepo_tracerCarrier" stroke-linecap="round" stroke-linejoin="round"/>
<g id="SVGRepo_iconCarrier"> <style type="text/css"> .linesandangles_een{fill:#e31e24;} </style> <path class="linesandangles_een" d="M24,20v-5c0-4.079-3.055-7.438-7-7.931V5h-2v2.069C11.055,7.562,8,10.921,8,15v5 c0,1.105-0.895,2-2,2v2h20v-2C24.895,22,24,21.105,24,20z M9.463,22C9.804,21.411,10,20.728,10,20v-5c0-3.308,2.692-6,6-6 s6,2.692,6,6v5c0,0.728,0.196,1.411,0.537,2H9.463z M15,25h2v2h-2V25z"/> </g>
</svg>